<?xml version="1.0" encoding="UTF-8" standalone="no"?>
<!-- Created with Inkscape (http://www.inkscape.org/) -->

<svg
   xmlns:dc="http://purl.org/dc/elements/1.1/"
   xmlns:cc="http://creativecommons.org/ns#"
   xmlns:rdf="http://www.w3.org/1999/02/22-rdf-syntax-ns#"
   xmlns:svg="http://www.w3.org/2000/svg"
   xmlns="http://www.w3.org/2000/svg"
   xmlns:sodipodi="http://sodipodi.sourceforge.net/DTD/sodipodi-0.dtd"
   xmlns:inkscape="http://www.inkscape.org/namespaces/inkscape"
   width="100mm"
   height="30mm"
   viewBox="0 0 100 30"
   version="1.1"
   id="svg8"
   inkscape:version="0.92.0 r"
   sodipodi:docname="paradise.svg">
  <defs
     id="defs2">
    <clipPath
       id="clip1">
      <path
         id="path4485"
         d="m 204,0.300781 h 6 V 39 h -6 z m 0,0"
         inkscape:connector-curvature="0" />
    </clipPath>
    <clipPath
       id="clip2">
      <path
         id="path4488"
         d="m 213,0.300781 h 24 V 40 h -24 z m 0,0"
         inkscape:connector-curvature="0" />
    </clipPath>
  </defs>
  <sodipodi:namedview
     id="base"
     pagecolor="#ffffff"
     bordercolor="#666666"
     borderopacity="1.0"
     inkscape:pageopacity="0.0"
     inkscape:pageshadow="2"
     inkscape:zoom="0.7"
     inkscape:cx="-27.197953"
     inkscape:cy="509.69222"
     inkscape:document-units="mm"
     inkscape:current-layer="layer1"
     showgrid="false"
     inkscape:window-width="1920"
     inkscape:window-height="1136"
     inkscape:window-x="0"
     inkscape:window-y="27"
     inkscape:window-maximized="1" />
  <metadata
     id="metadata5">
    <rdf:RDF>
      <cc:Work
         rdf:about="">
        <dc:format>image/svg+xml</dc:format>
        <dc:type
           rdf:resource="http://purl.org/dc/dcmitype/StillImage" />
        <dc:title></dc:title>
      </cc:Work>
    </rdf:RDF>
  </metadata>
  <g
     inkscape:label="Layer 1"
     inkscape:groupmode="layer"
     id="layer1"
     transform="translate(0,-267)">
    <g
       id="surface10014"
       transform="matrix(0.35277778,0,0,0.35277778,3.0853777,267.99982)">
      <path
         id="path4493"
         d="m 54,1.496094 v 20.25 h 20.25 v -20.25 z m 18,18 H 56.25 v -15.75 H 72 v 15.75"
         style="fill:#211e1e;fill-opacity:1;fill-rule:nonzero;stroke:none"
         inkscape:connector-curvature="0" />
      <path
         id="path4495"
         d="m 54,28.496094 v 20.25 h 20.25 v -20.25 z m 18,18 H 56.25 v -15.75 H 72 v 15.75"
         style="fill:#211e1e;fill-opacity:1;fill-rule:nonzero;stroke:none"
         inkscape:connector-curvature="0" />
      <path
         id="path4497"
         d="M 54,55.496094 V 75.742188 H 74.25 V 55.496094 Z M 72,73.492188 H 56.25 v -15.75 H 72 v 15.75"
         style="fill:#211e1e;fill-opacity:1;fill-rule:nonzero;stroke:none"
         inkscape:connector-curvature="0" />
      <path
         id="path4499"
         d="M 31.5,57.742188 H 45 v 15.75 H 34.890625 c 0.34375,0.765624 0.714844,1.519531 1.105469,2.25 H 47.25 V 55.496094 H 31.566406 C 31.527344,56.242188 31.5,56.988281 31.5,57.742188 Z M 37.128906,1.496094 c 0.390625,0.734375 0.757813,1.484375 1.105469,2.25 H 45 v 15.75 h -3.375 c 0,0.753906 -0.02734,1.503906 -0.06641,2.25 H 47.25 v -20.25 z m 2.847656,29.25 H 45 v 15.75 H 33.148438 c -0.226563,0.738281 -0.425782,1.492187 -0.605469,2.25 H 47.25 v -20.25 h -6.667969 c -0.179687,0.757812 -0.378906,1.507812 -0.605469,2.25"
         style="fill:#211e1e;fill-opacity:1;fill-rule:nonzero;stroke:none"
         inkscape:connector-curvature="0" />
      <path
         id="path4501"
         d="M 33.746094,75.742188 C 30.878906,70.378906 29.25,64.253906 29.25,57.742188 c 0,-6.964844 1.804688,-13.496094 5.0625,-19.121094 3.257812,-5.628906 5.0625,-12.15625 5.0625,-19.125 0,-6.511719 -1.632812,-12.636719 -4.496094,-18 H 0 v 74.246094 h 33.746094"
         style="fill:#211e1e;fill-opacity:1;fill-rule:nonzero;stroke:none"
         inkscape:connector-curvature="0" />
      <path
         id="path4503"
         d="M 2.25,73.492188 H 30.390625 C 28.214844,68.691406 27,63.359375 27,57.742188 c 0,-6.964844 1.804688,-13.496094 5.0625,-19.121094 3.257812,-5.628906 5.0625,-12.15625 5.0625,-19.125 0,-5.617188 -1.21875,-10.949219 -3.390625,-15.75 H 2.25 v 69.746094"
         style="fill:#42b542;fill-opacity:1;fill-rule:nonzero;stroke:none"
         inkscape:connector-curvature="0" />
      <path
         id="path4505"
         d="m 88.230469,39.246094 v -37.75 h 6.199219 c 3.945312,0 7.105472,1.128906 9.484372,3.390625 2.375,2.257812 3.56641,5.253906 3.56641,8.984375 0,3.726562 -1.19141,6.722656 -3.56641,8.984375 -2.3789,2.257812 -5.53906,3.390625 -9.484372,3.390625 h -2.949219 v 12.3125 z m 3.25,-34.625 v 18.5 h 2.898437 c 3.054688,0 5.441406,-0.820313 7.156254,-2.460938 1.71093,-1.636718 2.57031,-3.902344 2.57031,-6.789062 0,-2.890625 -0.85938,-5.15625 -2.57031,-6.792969 C 99.820312,5.4375 97.433594,4.621094 94.378906,4.621094 h -2.898437"
         style="fill:#211e1e;fill-opacity:1;fill-rule:nonzero;stroke:none"
         inkscape:connector-curvature="0" />
      <path
         id="path4507"
         d="m 125.54297,35.886719 c -0.96875,1.109375 -2.05859,1.945312 -3.27344,2.511719 -1.21484,0.5625 -2.53125,0.847656 -3.95703,0.847656 -2.74609,0 -5.08203,-0.964844 -7.00781,-2.894532 -1.92578,-1.925781 -2.88672,-4.265624 -2.88672,-7.011718 0,-2.730469 0.96484,-5.0625 2.90234,-7 1.9336,-1.9375 4.26563,-2.90625 6.99219,-2.90625 1.37109,0 2.68359,0.269531 3.92969,0.804687 1.25,0.539063 2.35156,1.320313 3.30078,2.34375 v -3.414062 c 0,-1.871094 -0.47266,-3.253907 -1.41406,-4.148438 -0.94141,-0.890625 -2.39844,-1.335937 -4.3711,-1.335937 -1.16015,0 -2.42187,0.167968 -3.77734,0.503906 -1.35547,0.335938 -2.90625,0.875 -4.64844,1.621094 l 1.1875,-3.515625 c 1.32422,-0.453125 2.6211,-0.792969 3.89063,-1.019531 1.26953,-0.226563 2.49609,-0.339844 3.67578,-0.339844 2.94531,0 5.10156,0.683594 6.46875,2.058594 1.36719,1.371093 2.05078,3.535156 2.05078,6.492187 v 19.074219 l -3.0625,0.6875 z m -14,-6.546875 c 0,1.988281 0.67187,3.644531 2.01953,4.972656 1.34766,1.332031 3.05078,1.996094 5.11328,1.996094 2.0586,0 3.71875,-0.644532 4.97656,-1.929688 1.26172,-1.28125 1.89063,-2.964844 1.89063,-5.039062 0,-2.058594 -0.62891,-3.738282 -1.89063,-5.03125 -1.25781,-1.292969 -2.89843,-1.9375 -4.92578,-1.9375 -2.09375,0 -3.8164,0.660156 -5.16406,1.980468 -1.34766,1.320313 -2.01953,2.980469 -2.01953,4.988282"
         style="fill:#211e1e;fill-opacity:1;fill-rule:nonzero;stroke:none"
         inkscape:connector-curvature="0" />
      <path
         id="path4509"
         d="m 134.16797,38.933594 v -27.3125 l 3,-0.375 v 5.851562 c 1.08984,-2.117187 2.41797,-3.707031 3.98828,-4.765625 1.57031,-1.058593 3.39062,-1.585937 5.46094,-1.585937 h 0.73828 l -1.23828,3 c -3.05469,0.296875 -5.3086,1.636718 -6.76563,4.011718 -1.45703,2.375 -2.18359,5.921876 -2.18359,10.636719 v 10.164063 l -3,0.375"
         style="fill:#211e1e;fill-opacity:1;fill-rule:nonzero;stroke:none"
         inkscape:connector-curvature="0" />
      <path
         id="path4511"
         d="m 164.40625,35.886719 c -0.96484,1.109375 -2.05469,1.945312 -3.26953,2.511719 -1.21485,0.5625 -2.53516,0.847656 -3.95703,0.847656 -2.7461,0 -5.08203,-0.964844 -7.00782,-2.894532 -1.92578,-1.925781 -2.89062,-4.265624 -2.89062,-7.011718 0,-2.730469 0.96875,-5.0625 2.90625,-7 1.93359,-1.9375 4.26172,-2.90625 6.99219,-2.90625 1.37109,0 2.67968,0.269531 3.92968,0.804687 1.25,0.539063 2.34766,1.320313 3.29688,2.34375 v -3.414062 c 0,-1.871094 -0.46875,-3.253907 -1.41016,-4.148438 -0.9414,-0.890625 -2.39843,-1.335937 -4.37109,-1.335937 -1.16406,0 -2.42188,0.167968 -3.77734,0.503906 -1.35547,0.335938 -2.90625,0.875 -4.64844,1.621094 l 1.1875,-3.515625 c 1.32031,-0.453125 2.61719,-0.792969 3.88672,-1.019531 1.26953,-0.226563 2.49609,-0.339844 3.67968,-0.339844 2.94532,0 5.10157,0.683594 6.46875,2.058594 1.36329,1.371093 2.05079,3.535156 2.05079,6.492187 v 19.074219 l -3.06641,0.6875 z m -14,-6.546875 c 0,1.988281 0.67578,3.644531 2.02344,4.972656 1.34765,1.332031 3.05078,1.996094 5.10937,1.996094 2.0625,0 3.72266,-0.644532 4.98047,-1.929688 1.25781,-1.28125 1.88672,-2.964844 1.88672,-5.039062 0,-2.058594 -0.62891,-3.738282 -1.88672,-5.03125 -1.25781,-1.292969 -2.90234,-1.9375 -4.92578,-1.9375 -2.09766,0 -3.81641,0.660156 -5.16406,1.980468 -1.34766,1.320313 -2.02344,2.980469 -2.02344,4.988282"
         style="fill:#211e1e;fill-opacity:1;fill-rule:nonzero;stroke:none"
         inkscape:connector-curvature="0" />
      <path
         id="path4513"
         d="m 173.22266,38.558594 v -37.0625 h 4.85937 c 4.14063,0 7.27344,0.25 9.40625,0.75 2.13281,0.503906 4.07422,1.335937 5.81641,2.496094 2.48437,1.640624 4.38281,3.765624 5.69531,6.382812 1.3125,2.613281 1.97266,5.578125 1.97266,8.886719 0,5.671875 -1.84375,10.179687 -5.52735,13.527343 -3.68359,3.34375 -8.69531,5.019532 -15.03906,5.019532 z m 3.25,-34 v 30.9375 h 4.43359 c 5.125,0 9.1875,-1.402344 12.1875,-4.207032 3,-2.804687 4.50391,-6.5625 4.50391,-11.277343 0,-4.710938 -1.50782,-8.464844 -4.51954,-11.261719 -3.00781,-2.792969 -7.0664,-4.191406 -12.17187,-4.191406 h -4.43359"
         style="fill:#211e1e;fill-opacity:1;fill-rule:nonzero;stroke:none"
         inkscape:connector-curvature="0" />
      <g
         id="g4517"
         clip-path="url(#clip1)"
         style="clip-rule:nonzero">
        <path
           id="path4515"
           d="m 204.87891,3.140625 2.30468,-2.769531 2.32032,2.476562 -2.32032,2.773438 z m 0.80859,35.855469 v -27.375 l 3.06641,-0.375 v 27.3125 l -3.06641,0.4375"
           style="fill:#211e1e;fill-opacity:1;fill-rule:nonzero;stroke:none"
           inkscape:connector-curvature="0" />
      </g>
      <g
         id="g4521"
         clip-path="url(#clip2)"
         style="clip-rule:nonzero">
        <path
           id="path4519"
           d="m 216.32031,30.746094 c 1.10938,1.78125 2.40625,3.121094 3.89453,4.023437 1.48828,0.898438 3.16797,1.351563 5.03125,1.351563 2.39844,0 4.375,-0.6875 5.9336,-2.0625 1.55859,-1.375 2.33593,-3.109375 2.33593,-5.207032 0,-3.488281 -2.95703,-6.121093 -8.86718,-7.898437 -0.61719,-0.175781 -1.08203,-0.320313 -1.39844,-0.425781 -3.03906,-0.914063 -5.26563,-2.15625 -6.67578,-3.730469 -1.41406,-1.574219 -2.1211,-3.59375 -2.1211,-6.054687 0,-2.796876 1.05469,-5.160157 3.16016,-7.09375 2.10547,-1.9375 4.75391,-2.902344 7.94531,-2.902344 1.95703,0 3.71875,0.339844 5.28907,1.023437 1.5664,0.683594 3.14453,1.796875 4.73046,3.339844 l -2.16796,2.511719 c -1.42579,-1.355469 -2.75782,-2.320313 -4,-2.894532 -1.23829,-0.570312 -2.58985,-0.855468 -4.05079,-0.855468 -2.07421,0 -3.83984,0.671875 -5.29296,2.019531 -1.44922,1.34375 -2.17579,2.976563 -2.17579,4.894531 0,1.199219 0.28125,2.246094 0.84375,3.144532 0.5625,0.898437 1.41797,1.652343 2.5625,2.269531 0.85938,0.476562 2.40625,1.039062 4.64063,1.691406 1.22656,0.351563 2.16797,0.632813 2.82031,0.84375 2.72266,0.933594 4.76953,2.21875 6.14063,3.855469 1.37109,1.636718 2.05468,3.617187 2.05468,5.941406 0,3.066406 -1.10937,5.625 -3.32421,7.6875 -2.21875,2.058594 -5.03516,3.089844 -8.44922,3.089844 -2.35938,0 -4.53516,-0.574219 -6.53516,-1.71875 -2,-1.144532 -3.66406,-2.773438 -5.00391,-4.886719 l 2.67969,-1.957031"
           style="fill:#211e1e;fill-opacity:1;fill-rule:nonzero;stroke:none"
           inkscape:connector-curvature="0" />
      </g>
      <path
         id="path4523"
         d="m 265.17187,35.402344 c -1.78125,1.316406 -3.54296,2.285156 -5.28906,2.90625 -1.74219,0.625 -3.55078,0.9375 -5.41797,0.9375 -4.10547,0 -7.51562,-1.351563 -10.23047,-4.054688 -2.71484,-2.703125 -4.07031,-6.066406 -4.07031,-10.082031 0,-4.011719 1.36328,-7.359375 4.09766,-10.035156 2.73047,-2.679688 6.13281,-4.015625 10.20312,-4.015625 2.57422,0 4.82422,0.550781 6.75391,1.65625 1.92969,1.109375 3.43359,2.707031 4.50781,4.796875 l -21.18359,12.503906 c 1.0039,1.945313 2.37109,3.449219 4.09765,4.511719 1.72657,1.0625 3.66797,1.59375 5.82032,1.59375 1.71093,0 3.40234,-0.359375 5.07422,-1.078125 1.67578,-0.71875 3.55468,-1.898438 5.63671,-3.546875 z m -21.71484,-7.980469 17.82422,-10.597656 c -0.75781,-0.933594 -1.71484,-1.640625 -2.86719,-2.117188 -1.15625,-0.472656 -2.47265,-0.710937 -3.95312,-0.710937 -3.10547,0 -5.73047,1.066406 -7.88282,3.199218 -2.15234,2.132813 -3.22656,4.746094 -3.22656,7.847657 0,0.496093 0.008,0.921875 0.0273,1.285156 0.0156,0.359375 0.043,0.726563 0.0781,1.09375"
         style="fill:#211e1e;fill-opacity:1;fill-rule:nonzero;stroke:none"
         inkscape:connector-curvature="0" />
      <path
         id="path4525"
         d="m 95.75,49.882812 c 0,0.515626 -0.09375,1 -0.277344,1.460938 -0.183594,0.457031 -0.4375,0.851562 -0.761718,1.175781 -0.414063,0.402344 -0.894532,0.707031 -1.449219,0.914063 -0.554688,0.207031 -1.257813,0.308594 -2.105469,0.308594 H 89.8125 v 4.4375 H 88.25 v -11.875 h 2.984375 c 0.703125,0 1.300781,0.05859 1.796875,0.175781 0.492188,0.117187 0.929688,0.308593 1.308594,0.566406 0.441406,0.304687 0.785156,0.6875 1.035156,1.152344 0.25,0.464843 0.375,1.023437 0.375,1.683593 z m -1.65625,0.03516 c 0,-0.402344 -0.07031,-0.753907 -0.210938,-1.054688 -0.140624,-0.296875 -0.355468,-0.542969 -0.644531,-0.730469 -0.25,-0.164062 -0.539062,-0.28125 -0.875,-0.347656 -0.332031,-0.07031 -0.746093,-0.105468 -1.242187,-0.105468 H 89.8125 v 4.6875 h 1.078125 c 0.640625,0 1.15625,-0.04688 1.550781,-0.152344 0.394532,-0.101563 0.71875,-0.285156 0.980469,-0.546875 0.234375,-0.238281 0.40625,-0.492188 0.511719,-0.773438 0.105468,-0.277343 0.160156,-0.601562 0.160156,-0.976562"
         style="fill:#211e1e;fill-opacity:1;fill-rule:nonzero;stroke:none"
         inkscape:connector-curvature="0" />
      <path
         id="path4527"
         d="m 103.07422,57.234375 c -0.125,0.09375 -0.28516,0.21875 -0.48828,0.378906 -0.20313,0.164063 -0.40235,0.292969 -0.58985,0.390625 -0.26562,0.136719 -0.51953,0.242188 -0.76562,0.316406 -0.24609,0.07422 -0.58984,0.109376 -1.03516,0.109376 -0.363279,0 -0.710935,-0.06641 -1.03906,-0.207032 -0.324219,-0.136718 -0.613281,-0.332031 -0.863281,-0.582031 -0.238281,-0.246094 -0.425781,-0.546875 -0.570313,-0.910156 -0.140625,-0.359375 -0.210937,-0.738281 -0.210937,-1.136719 0,-0.617188 0.128906,-1.144531 0.386719,-1.578125 0.257812,-0.4375 0.667968,-0.78125 1.226562,-1.039063 0.496094,-0.226562 1.08594,-0.386718 1.76172,-0.472656 0.67578,-0.08984 1.40234,-0.15625 2.1875,-0.199218 v -0.285157 c 0,-0.351562 -0.0547,-0.632812 -0.16016,-0.847656 -0.10547,-0.214844 -0.2539,-0.382813 -0.44531,-0.5 -0.1875,-0.121094 -0.42187,-0.203125 -0.69531,-0.242187 -0.27735,-0.03906 -0.5586,-0.0625 -0.84766,-0.0625 -0.34375,0 -0.75,0.05469 -1.214842,0.164062 -0.464844,0.105469 -0.929688,0.261719 -1.394532,0.460938 h -0.08594 v -1.527344 c 0.273437,-0.07813 0.667969,-0.167969 1.183593,-0.265625 0.511719,-0.09375 1.023441,-0.144531 1.527351,-0.144531 0.60937,0 1.12109,0.05078 1.53906,0.144531 0.41797,0.09766 0.79687,0.269531 1.12891,0.519531 0.32421,0.246094 0.5664,0.5625 0.72656,0.949219 0.15625,0.386719 0.23828,0.863281 0.23828,1.421875 v 6.089844 h -1.5 z m 0,-1.242187 v -2.464844 c -0.35547,0.03125 -0.80469,0.07422 -1.34766,0.128906 -0.54297,0.05859 -0.98047,0.136719 -1.3125,0.234375 -0.39453,0.125 -0.722654,0.3125 -0.984372,0.5625 -0.257813,0.253906 -0.386719,0.605469 -0.386719,1.058594 0,0.507812 0.140625,0.894531 0.425781,1.152343 0.285156,0.261719 0.70313,0.390626 1.25391,0.390626 0.47265,0 0.89843,-0.101563 1.27734,-0.304688 0.38281,-0.207031 0.73828,-0.457031 1.07422,-0.757812"
         style="fill:#211e1e;fill-opacity:1;fill-rule:nonzero;stroke:none"
         inkscape:connector-curvature="0" />
      <path
         id="path4529"
         d="m 112.74609,50.902344 h -0.0781 c -0.10938,-0.03125 -0.23047,-0.04687 -0.35156,-0.05469 -0.125,-0.0039 -0.27344,-0.0078 -0.44532,-0.0078 -0.40234,0 -0.79687,0.08594 -1.1914,0.261718 -0.39453,0.171876 -0.76953,0.433594 -1.1211,0.777344 v 6.300782 h -1.5 v -8.902344 h 1.5 v 1.320312 c 0.54297,-0.480468 1.01172,-0.824218 1.41797,-1.023437 0.40235,-0.199219 0.79297,-0.296875 1.16797,-0.296875 0.15625,0 0.26953,0.0039 0.34375,0.01172 0.0781,0.0078 0.16406,0.01953 0.25781,0.03516 v 1.578125"
         style="fill:#211e1e;fill-opacity:1;fill-rule:nonzero;stroke:none"
         inkscape:connector-curvature="0" />
      <path
         id="path4531"
         d="m 119.95313,57.234375 c -0.1211,0.09375 -0.28125,0.21875 -0.48438,0.378906 -0.20312,0.164063 -0.40234,0.292969 -0.58984,0.390625 -0.26563,0.136719 -0.51953,0.242188 -0.76563,0.316406 -0.24609,0.07422 -0.59375,0.109376 -1.03515,0.109376 -0.36329,0 -0.71094,-0.06641 -1.03907,-0.207032 -0.32812,-0.136718 -0.61328,-0.332031 -0.86328,-0.582031 -0.23828,-0.246094 -0.42578,-0.546875 -0.57031,-0.910156 -0.14063,-0.359375 -0.21484,-0.738281 -0.21484,-1.136719 0,-0.617188 0.1289,-1.144531 0.39062,-1.578125 0.25781,-0.4375 0.66797,-0.78125 1.22656,-1.039063 0.4961,-0.226562 1.08203,-0.386718 1.76172,-0.472656 0.67188,-0.08984 1.40235,-0.15625 2.1836,-0.199218 v -0.285157 c 0,-0.351562 -0.0508,-0.632812 -0.15625,-0.847656 -0.10547,-0.214844 -0.25391,-0.382813 -0.44532,-0.5 -0.1914,-0.121094 -0.42187,-0.203125 -0.69922,-0.242187 -0.27343,-0.03906 -0.55468,-0.0625 -0.84765,-0.0625 -0.34375,0 -0.7461,0.05469 -1.21094,0.164062 -0.46484,0.105469 -0.92969,0.261719 -1.39453,0.460938 h -0.0898 v -1.527344 c 0.27734,-0.07813 0.67187,-0.167969 1.1875,-0.265625 0.51171,-0.09375 1.01953,-0.144531 1.52343,-0.144531 0.60938,0 1.125,0.05078 1.54297,0.144531 0.41797,0.09766 0.79688,0.269531 1.12891,0.519531 0.32422,0.246094 0.5664,0.5625 0.72265,0.949219 0.16016,0.386719 0.23829,0.863281 0.23829,1.421875 v 6.089844 h -1.5 z m 0,-1.242187 v -2.464844 c -0.35157,0.03125 -0.80079,0.07422 -1.34375,0.128906 -0.54297,0.05859 -0.98047,0.136719 -1.3125,0.234375 -0.39844,0.125 -0.72657,0.3125 -0.98438,0.5625 -0.25781,0.253906 -0.39062,0.605469 -0.39062,1.058594 0,0.507812 0.14453,0.894531 0.42968,1.152343 0.28516,0.261719 0.70313,0.390626 1.25391,0.390626 0.46875,0 0.89844,-0.101563 1.27734,-0.304688 0.38282,-0.207031 0.73828,-0.457031 1.07032,-0.757812"
         style="fill:#211e1e;fill-opacity:1;fill-rule:nonzero;stroke:none"
         inkscape:connector-curvature="0" />
      <path
         id="path4533"
         d="m 124.97266,58.179688 h 1.5 v -12.40625 h -1.5 z m 0,0"
         style="fill:#211e1e;fill-opacity:1;fill-rule:nonzero;stroke:none"
         inkscape:connector-curvature="0" />
      <path
         id="path4535"
         d="m 130.10547,58.179688 h 1.5 v -12.40625 h -1.5 z m 0,0"
         style="fill:#211e1e;fill-opacity:1;fill-rule:nonzero;stroke:none"
         inkscape:connector-curvature="0" />
      <path
         id="path4537"
         d="m 139,58.367188 c -1.41406,0 -2.51172,-0.398438 -3.29297,-1.195313 -0.78125,-0.800781 -1.17187,-1.933594 -1.17187,-3.402344 0,-1.449219 0.375,-2.601562 1.13281,-3.457031 0.75781,-0.859375 1.74609,-1.285156 2.96875,-1.285156 0.55078,0 1.03515,0.07813 1.46094,0.238281 0.42187,0.15625 0.79296,0.40625 1.10937,0.746094 0.31641,0.339843 0.55859,0.753906 0.73047,1.246093 0.16797,0.488282 0.25391,1.089844 0.25391,1.800782 v 0.808594 h -6.15625 c 0,1.035156 0.25781,1.824218 0.77734,2.371093 0.52344,0.546875 1.24219,0.816407 2.16406,0.816407 0.32813,0 0.64844,-0.03516 0.96485,-0.109376 0.3164,-0.07031 0.60156,-0.167968 0.85937,-0.28125 0.26953,-0.121093 0.49609,-0.238281 0.68359,-0.351562 0.1875,-0.113281 0.33985,-0.21875 0.46094,-0.320312 h 0.0898 v 1.628906 c -0.17579,0.07031 -0.39454,0.15625 -0.65235,0.257812 -0.26172,0.101563 -0.49219,0.1875 -0.69922,0.242188 -0.29297,0.08203 -0.55468,0.140625 -0.78906,0.183594 -0.23828,0.04297 -0.53516,0.0625 -0.89453,0.0625 z m 1.72266,-5.652344 c -0.0117,-0.40625 -0.0586,-0.753906 -0.14454,-1.046875 -0.0859,-0.289063 -0.20703,-0.535157 -0.36328,-0.738281 -0.17578,-0.222657 -0.39843,-0.394532 -0.67187,-0.511719 -0.27344,-0.117188 -0.60938,-0.175781 -1.01172,-0.175781 -0.39453,0 -0.73438,0.0625 -1.01172,0.179687 -0.27734,0.121094 -0.52734,0.296875 -0.75391,0.523437 -0.22656,0.234376 -0.39453,0.492188 -0.50781,0.777344 -0.11719,0.285156 -0.1914,0.613282 -0.22265,0.992188 h 4.6875"
         style="fill:#211e1e;fill-opacity:1;fill-rule:nonzero;stroke:none"
         inkscape:connector-curvature="0" />
      <path
         id="path4539"
         d="m 145.13672,58.179688 h 1.5 v -12.40625 h -1.5 z m 0,0"
         style="fill:#211e1e;fill-opacity:1;fill-rule:nonzero;stroke:none"
         inkscape:connector-curvature="0" />
      <path
         id="path4541"
         d="m 167.08594,58.179688 h -2.04688 l -1.6289,-1.699219 c -0.54297,0.695312 -1.09766,1.191406 -1.67188,1.496093 -0.57031,0.304688 -1.21875,0.453126 -1.94141,0.453126 -1.07421,0 -1.96093,-0.320313 -2.66406,-0.964844 -0.69922,-0.648438 -1.04687,-1.496094 -1.04687,-2.542969 0,-0.457031 0.0625,-0.867187 0.1875,-1.222656 0.1289,-0.355469 0.30078,-0.679688 0.51172,-0.964844 0.20703,-0.277344 0.44531,-0.519531 0.71875,-0.730469 0.26953,-0.210937 0.53125,-0.394531 0.78125,-0.546875 -0.53907,-0.363281 -0.94141,-0.742187 -1.20704,-1.140625 -0.26562,-0.398437 -0.39843,-0.902344 -0.39843,-1.507812 0,-0.378906 0.0742,-0.726563 0.22656,-1.046875 0.15234,-0.324219 0.35156,-0.605469 0.59375,-0.851563 0.25781,-0.25 0.58984,-0.453125 0.99609,-0.613281 0.40625,-0.160156 0.85157,-0.242187 1.33594,-0.242187 0.88281,0 1.60547,0.234374 2.16406,0.699218 0.5586,0.464844 0.83985,1.054688 0.83985,1.769532 0,0.257812 -0.0352,0.527343 -0.10157,0.808593 -0.0664,0.277344 -0.1875,0.546875 -0.36328,0.808594 -0.17578,0.261719 -0.40625,0.507813 -0.6914,0.734375 -0.28516,0.226562 -0.66407,0.429688 -1.13672,0.597656 l 2.8125,2.886719 c 0.0781,-0.433594 0.125,-0.910156 0.14062,-1.421875 0.0195,-0.511719 0.0273,-1.179688 0.0273,-2.007812 h 1.5625 v 0.769531 c 0,0.507812 -0.0664,1.082031 -0.19922,1.722656 -0.13281,0.644531 -0.35156,1.25 -0.65625,1.824219 z m -4.3711,-2.398438 -3.67187,-3.75 c -0.13281,0.08203 -0.26172,0.183594 -0.39453,0.300781 -0.12891,0.117188 -0.27344,0.292969 -0.42969,0.523438 -0.125,0.1875 -0.23828,0.429687 -0.33203,0.730469 -0.0977,0.300781 -0.14453,0.617187 -0.14453,0.953124 0,0.753907 0.22265,1.371094 0.66797,1.855469 0.44921,0.484375 1.05468,0.722657 1.82031,0.722657 0.50781,0 0.96484,-0.105469 1.375,-0.320313 0.40625,-0.210937 0.77734,-0.550781 1.10937,-1.015625 z m -2.92578,-4.875 c 0.30078,-0.101562 0.54688,-0.238281 0.74219,-0.40625 0.19531,-0.171875 0.34766,-0.355469 0.45312,-0.558594 0.0937,-0.1875 0.16797,-0.382812 0.21485,-0.59375 0.0469,-0.207031 0.0742,-0.429687 0.0742,-0.667968 0,-0.519532 -0.15235,-0.917969 -0.45313,-1.199219 -0.30078,-0.28125 -0.65234,-0.425781 -1.05078,-0.425781 -0.47656,0 -0.84766,0.164062 -1.12109,0.480468 -0.26953,0.320313 -0.40625,0.71875 -0.40625,1.199219 0,0.214844 0.0195,0.394531 0.0586,0.546875 0.0391,0.152344 0.125,0.328125 0.25391,0.53125 0.10937,0.164062 0.26562,0.339844 0.46484,0.527344 0.19922,0.1875 0.45703,0.375 0.76953,0.566406"
         style="fill:#211e1e;fill-opacity:1;fill-rule:nonzero;stroke:none"
         inkscape:connector-curvature="0" />
      <path
         id="path4543"
         d="m 184.89453,52.257812 c 0,1.082032 -0.21875,2.0625 -0.65625,2.933594 -0.4375,0.871094 -1.02344,1.550782 -1.76172,2.039063 -0.60156,0.378906 -1.20703,0.632812 -1.82812,0.757812 -0.61719,0.128907 -1.40625,0.191407 -2.36719,0.191407 h -2.73047 v -11.875 H 178.25 c 1.11328,0 1.98828,0.08594 2.62109,0.253906 0.63672,0.167968 1.17578,0.398437 1.6211,0.6875 0.76562,0.507812 1.35547,1.179687 1.77343,2.015625 0.42188,0.835937 0.62891,1.835937 0.62891,2.996093 z m -1.65625,-0.02734 c 0,-0.910157 -0.14844,-1.6875 -0.45312,-2.328125 -0.30079,-0.644532 -0.75,-1.144532 -1.34375,-1.503906 -0.41797,-0.253907 -0.86719,-0.4375 -1.34375,-0.550782 -0.48047,-0.109375 -1.07422,-0.167968 -1.78125,-0.167968 h -1.20313 v 9.125 h 1.20313 c 0.69921,0 1.3125,-0.05469 1.83593,-0.164063 0.52735,-0.113281 1.00391,-0.316406 1.44141,-0.621094 0.54687,-0.371093 0.95703,-0.863281 1.23047,-1.480469 0.27734,-0.617187 0.41406,-1.386718 0.41406,-2.308593"
         style="fill:#211e1e;fill-opacity:1;fill-rule:nonzero;stroke:none"
         inkscape:connector-curvature="0" />
      <path
         id="path4545"
         d="m 189.53906,47.804688 h -1.71875 v -1.5625 h 1.71875 z m -0.125,10.375 h -1.5 v -8.902344 h 1.5 v 8.902344"
         style="fill:#211e1e;fill-opacity:1;fill-rule:nonzero;stroke:none"
         inkscape:connector-curvature="0" />
      <path
         id="path4547"
         d="m 195.36328,58.367188 c -0.59375,0 -1.15234,-0.07813 -1.67187,-0.238282 -0.51563,-0.160156 -0.94532,-0.332031 -1.28516,-0.511718 v -1.6875 h 0.0781 c 0.12891,0.105468 0.28125,0.21875 0.45313,0.34375 0.17187,0.125 0.40234,0.253906 0.6875,0.390624 0.25781,0.117188 0.53516,0.226563 0.83984,0.316407 0.30469,0.09375 0.625,0.136719 0.95313,0.136719 0.23828,0 0.49219,-0.02734 0.76562,-0.08203 0.26953,-0.05469 0.46875,-0.128906 0.60157,-0.210937 0.1875,-0.125 0.32031,-0.253907 0.40234,-0.394531 0.082,-0.140626 0.125,-0.347657 0.125,-0.625 0,-0.359376 -0.0977,-0.628907 -0.28906,-0.808594 -0.19532,-0.183594 -0.53907,-0.335938 -1.03516,-0.457032 -0.19141,-0.04687 -0.44141,-0.101562 -0.75,-0.164062 -0.30859,-0.0625 -0.59375,-0.128906 -0.85547,-0.203125 -0.67969,-0.195313 -1.17187,-0.5 -1.48437,-0.910156 -0.30469,-0.410157 -0.46094,-0.90625 -0.46094,-1.492188 0,-0.800781 0.30469,-1.453125 0.91406,-1.957031 0.60547,-0.503906 1.41406,-0.757812 2.42188,-0.757812 0.49609,0 0.99609,0.0625 1.49609,0.183593 0.5,0.125 0.92188,0.277344 1.26172,0.464844 v 1.601563 h -0.0781 c -0.38671,-0.308594 -0.8125,-0.550782 -1.28515,-0.730469 -0.47266,-0.175781 -0.94922,-0.269531 -1.42969,-0.269531 -0.49609,0 -0.91406,0.105468 -1.25781,0.3125 -0.33985,0.210937 -0.51172,0.523437 -0.51172,0.945312 0,0.371094 0.10156,0.652344 0.30469,0.835938 0.20312,0.183593 0.52734,0.335937 0.97265,0.453124 0.22266,0.05859 0.47266,0.113282 0.7461,0.167969 0.27343,0.05859 0.5625,0.121094 0.86718,0.195313 0.66016,0.164062 1.15625,0.4375 1.48829,0.820312 0.33203,0.382813 0.49609,0.902344 0.49609,1.558594 0,0.382812 -0.0742,0.742188 -0.22656,1.085938 -0.15235,0.34375 -0.375,0.636718 -0.66407,0.878906 -0.32031,0.265625 -0.67968,0.46875 -1.08203,0.601562 -0.39843,0.140625 -0.90234,0.207032 -1.50781,0.207032"
         style="fill:#211e1e;fill-opacity:1;fill-rule:nonzero;stroke:none"
         inkscape:connector-curvature="0" />
      <path
         id="path4549"
         d="m 204.29687,58.367188 c -0.8164,0 -1.45312,-0.230469 -1.91015,-0.695313 -0.45313,-0.464844 -0.6836,-1.203125 -0.6836,-2.207031 v -4.9375 h -1 v -1.25 h 1 v -2.5625 h 1.5 v 2.5625 h 2.75 v 1.25 h -2.75 v 4.238281 c 0,0.453125 0.008,0.800781 0.0234,1.046875 0.0156,0.242188 0.0781,0.472656 0.1836,0.683594 0.0898,0.1875 0.23437,0.328125 0.4375,0.421875 0.19921,0.09375 0.47265,0.136719 0.8164,0.136719 0.2461,0 0.48047,-0.03125 0.70703,-0.101563 0.23047,-0.07031 0.39453,-0.128906 0.4961,-0.175781 h 0.0859 v 1.335937 c -0.28125,0.08203 -0.5664,0.144531 -0.85546,0.1875 -0.28907,0.04687 -0.55469,0.06641 -0.80079,0.06641"
         style="fill:#211e1e;fill-opacity:1;fill-rule:nonzero;stroke:none"
         inkscape:connector-curvature="0" />
      <path
         id="path4551"
         d="m 213.10937,50.902344 h -0.0781 c -0.10938,-0.03125 -0.22656,-0.04687 -0.34766,-0.05469 -0.125,-0.0039 -0.27343,-0.0078 -0.44922,-0.0078 -0.39843,0 -0.79687,0.08594 -1.1914,0.261718 -0.39453,0.171876 -0.76563,0.433594 -1.11719,0.777344 v 6.300782 h -1.5 v -8.902344 h 1.5 v 1.320312 c 0.53906,-0.480468 1.01172,-0.824218 1.41406,-1.023437 0.40235,-0.199219 0.79297,-0.296875 1.17188,-0.296875 0.15234,0 0.26562,0.0039 0.34375,0.01172 0.0781,0.0078 0.16015,0.01953 0.2539,0.03516 v 1.578125"
         style="fill:#211e1e;fill-opacity:1;fill-rule:nonzero;stroke:none"
         inkscape:connector-curvature="0" />
      <path
         id="path4553"
         d="m 217.31641,47.804688 h -1.71875 v -1.5625 h 1.71875 z m -0.125,10.375 h -1.5 v -8.902344 h 1.5 v 8.902344"
         style="fill:#211e1e;fill-opacity:1;fill-rule:nonzero;stroke:none"
         inkscape:connector-curvature="0" />
      <path
         id="path4555"
         d="m 228.21484,53.582031 c 0,1.457031 -0.35156,2.628907 -1.05859,3.515625 -0.70703,0.890625 -1.59375,1.332032 -2.65234,1.332032 -0.48438,0 -0.89844,-0.05859 -1.24219,-0.175782 -0.33985,-0.121094 -0.67969,-0.28125 -1.01563,-0.484375 l -0.0937,0.410157 h -1.40625 V 45.777344 h 1.5 v 4.425781 c 0.37891,-0.339844 0.78516,-0.621094 1.22657,-0.84375 0.4414,-0.222656 0.9414,-0.332031 1.5,-0.332031 1.0039,0 1.79687,0.402344 2.375,1.207031 0.57812,0.804687 0.86718,1.921875 0.86718,3.347656 z m -1.53125,0.125 c 0,-1.0625 -0.16406,-1.867187 -0.48828,-2.417969 -0.32422,-0.550781 -0.84765,-0.824218 -1.5664,-0.824218 -0.41016,0 -0.82422,0.09375 -1.24219,0.28125 -0.41797,0.1875 -0.79688,0.429687 -1.14063,0.71875 v 5.109375 c 0.37891,0.1875 0.71485,0.320312 1.00782,0.398437 0.29296,0.07813 0.61718,0.117188 0.96875,0.117188 0.76562,0 1.37109,-0.273438 1.80468,-0.816406 0.4375,-0.539063 0.65625,-1.394532 0.65625,-2.566407"
         style="fill:#211e1e;fill-opacity:1;fill-rule:nonzero;stroke:none"
         inkscape:connector-curvature="0" />
      <path
         id="path4557"
         d="m 238.03125,58.179688 h -1.5 v -0.984376 c -0.46094,0.40625 -0.89453,0.710938 -1.30859,0.921876 -0.41016,0.210937 -0.8711,0.3125 -1.37891,0.3125 -0.38672,0 -0.75,-0.0625 -1.08984,-0.191407 -0.33985,-0.125 -0.63672,-0.328125 -0.89063,-0.601562 -0.25391,-0.28125 -0.45312,-0.628907 -0.59375,-1.046875 -0.13672,-0.421875 -0.20703,-0.929688 -0.20703,-1.53125 v -5.78125 h 1.5 v 5.066406 c 0,0.472656 0.0156,0.863281 0.0508,1.171875 0.0352,0.3125 0.11328,0.582031 0.23438,0.816406 0.12109,0.230469 0.28515,0.394531 0.49218,0.503907 0.20703,0.105468 0.50782,0.15625 0.89844,0.15625 0.36328,0 0.75,-0.101563 1.16016,-0.304688 0.41406,-0.207031 0.78906,-0.457031 1.13281,-0.757812 v -6.652344 h 1.5 v 8.902344"
         style="fill:#211e1e;fill-opacity:1;fill-rule:nonzero;stroke:none"
         inkscape:connector-curvature="0" />
      <path
         id="path4559"
         d="m 244.26953,58.367188 c -0.81641,0 -1.45312,-0.230469 -1.91016,-0.695313 -0.45703,-0.464844 -0.68359,-1.203125 -0.68359,-2.207031 v -4.9375 h -1 v -1.25 h 1 v -2.5625 h 1.5 v 2.5625 h 2.75 v 1.25 h -2.75 v 4.238281 c 0,0.453125 0.008,0.800781 0.0234,1.046875 0.0156,0.242188 0.0781,0.472656 0.18359,0.683594 0.0898,0.1875 0.23438,0.328125 0.4375,0.421875 0.19922,0.09375 0.47266,0.136719 0.81641,0.136719 0.24609,0 0.48047,-0.03125 0.71094,-0.101563 0.22656,-0.07031 0.39062,-0.128906 0.49218,-0.175781 h 0.0859 v 1.335937 c -0.28125,0.08203 -0.56641,0.144531 -0.85547,0.1875 -0.28906,0.04687 -0.55469,0.06641 -0.80078,0.06641"
         style="fill:#211e1e;fill-opacity:1;fill-rule:nonzero;stroke:none"
         inkscape:connector-curvature="0" />
      <path
         id="path4561"
         d="m 252.23437,58.367188 c -1.41406,0 -2.50781,-0.398438 -3.29296,-1.195313 -0.78125,-0.800781 -1.17188,-1.933594 -1.17188,-3.402344 0,-1.449219 0.37891,-2.601562 1.13672,-3.457031 0.75391,-0.859375 1.74609,-1.285156 2.96875,-1.285156 0.55078,0 1.03516,0.07813 1.45703,0.238281 0.42578,0.15625 0.79688,0.40625 1.11328,0.746094 0.31641,0.339843 0.5586,0.753906 0.73047,1.246093 0.16797,0.488282 0.25391,1.089844 0.25391,1.800782 v 0.808594 h -6.16016 c 0,1.035156 0.26172,1.824218 0.78516,2.371093 0.51953,0.546875 1.23828,0.816407 2.15625,0.816407 0.32812,0 0.65234,-0.03516 0.96875,-0.109376 0.3164,-0.07031 0.60156,-0.167968 0.85547,-0.28125 0.27343,-0.121093 0.5,-0.238281 0.6875,-0.351562 0.18359,-0.113281 0.33984,-0.21875 0.46093,-0.320312 h 0.0859 v 1.628906 c -0.17187,0.07031 -0.39062,0.15625 -0.64844,0.257812 -0.26172,0.101563 -0.49218,0.1875 -0.69922,0.242188 -0.29296,0.08203 -0.55468,0.140625 -0.78906,0.183594 -0.23828,0.04297 -0.53515,0.0625 -0.89844,0.0625 z m 1.72657,-5.652344 c -0.0117,-0.40625 -0.0586,-0.753906 -0.14453,-1.046875 -0.0859,-0.289063 -0.20704,-0.535157 -0.36719,-0.738281 -0.17188,-0.222657 -0.39453,-0.394532 -0.66797,-0.511719 -0.27344,-0.117188 -0.60938,-0.175781 -1.01172,-0.175781 -0.39844,0 -0.73437,0.0625 -1.01172,0.179687 -0.27734,0.121094 -0.52734,0.296875 -0.75781,0.523437 -0.22266,0.234376 -0.39063,0.492188 -0.50781,0.777344 -0.11328,0.285156 -0.1875,0.613282 -0.22266,0.992188 h 4.69141"
         style="fill:#211e1e;fill-opacity:1;fill-rule:nonzero;stroke:none"
         inkscape:connector-curvature="0" />
      <path
         id="path4563"
         d="m 265.1875,58.179688 h -1.5 v -0.902344 c -0.23438,0.195312 -0.43359,0.359375 -0.60547,0.484375 -0.17187,0.128906 -0.36719,0.246093 -0.59766,0.351562 -0.21484,0.101563 -0.43359,0.179688 -0.66015,0.234375 -0.23047,0.05469 -0.4961,0.08203 -0.79688,0.08203 -0.48437,0 -0.93359,-0.09766 -1.34375,-0.300782 -0.41406,-0.203125 -0.76172,-0.496094 -1.04687,-0.886718 -0.29297,-0.394532 -0.51953,-0.878907 -0.67969,-1.457032 -0.15625,-0.574218 -0.23828,-1.238281 -0.23828,-1.988281 0,-0.78125 0.10156,-1.457031 0.30078,-2.03125 0.20313,-0.570313 0.48438,-1.070313 0.83984,-1.496094 0.32422,-0.386719 0.71485,-0.691406 1.17579,-0.914062 0.45703,-0.21875 0.9414,-0.328125 1.44531,-0.328125 0.44531,0 0.83203,0.04687 1.16406,0.144531 0.32813,0.101563 0.67578,0.25 1.04297,0.460937 v -3.855468 h 1.5 z m -1.5,-2.160157 V 50.875 c -0.375,-0.179688 -0.70703,-0.304688 -1.00391,-0.371094 -0.29297,-0.07031 -0.61718,-0.101562 -0.96093,-0.101562 -0.77735,0 -1.37891,0.285156 -1.81641,0.863281 -0.4375,0.574219 -0.65625,1.40625 -0.65625,2.496094 0,1.042969 0.16797,1.84375 0.50391,2.398437 0.33593,0.558594 0.875,0.832032 1.61328,0.832032 0.39843,0 0.79297,-0.08594 1.19531,-0.261719 0.39844,-0.175781 0.77344,-0.414063 1.125,-0.710938"
         style="fill:#211e1e;fill-opacity:1;fill-rule:nonzero;stroke:none"
         inkscape:connector-curvature="0" />
      <path
         id="path4565"
         d="m 91.5625,75.96875 c -0.863281,0 -1.597656,-0.08984 -2.199219,-0.269531 C 88.757812,75.523438 88.1875,75.300781 87.65625,75.042969 V 73.0625 h 0.113281 c 0.519531,0.488281 1.109375,0.863281 1.769531,1.132812 0.660157,0.265626 1.292969,0.398438 1.90625,0.398438 0.871094,0 1.53125,-0.179688 1.976563,-0.542969 0.449219,-0.363281 0.671875,-0.84375 0.671875,-1.4375 0,-0.472656 -0.117188,-0.859375 -0.347656,-1.15625 -0.234375,-0.296875 -0.601563,-0.515625 -1.109375,-0.660156 -0.367188,-0.105469 -0.703125,-0.191406 -1.007813,-0.261719 -0.300781,-0.07031 -0.683594,-0.164062 -1.140625,-0.28125 -0.410156,-0.105468 -0.777343,-0.242187 -1.101562,-0.40625 C 89.0625,69.683594 88.773438,69.46875 88.523438,69.203125 88.28125,68.941406 88.089844,68.632812 87.953125,68.28125 87.816406,67.925781 87.75,67.519531 87.75,67.054688 c 0,-0.960938 0.375,-1.769532 1.125,-2.421876 0.75,-0.652343 1.707031,-0.976562 2.871094,-0.976562 0.664062,0 1.292968,0.06641 1.886718,0.199219 0.59375,0.132812 1.144532,0.320312 1.648438,0.566406 V 66.3125 h -0.121094 c -0.375,-0.34375 -0.859375,-0.640625 -1.445312,-0.898438 C 93.125,65.160156 92.503906,65.03125 91.859375,65.03125 c -0.734375,0 -1.324219,0.171875 -1.777344,0.511719 -0.449219,0.34375 -0.675781,0.792969 -0.675781,1.351562 0,0.503907 0.132812,0.902344 0.394531,1.199219 0.265625,0.296875 0.648438,0.515625 1.152344,0.652344 0.332031,0.09375 0.742187,0.195312 1.226563,0.308594 0.484374,0.113281 0.886718,0.21875 1.207031,0.3125 0.820312,0.25 1.417969,0.628906 1.796875,1.136718 0.378906,0.503906 0.566406,1.128906 0.566406,1.867188 0,0.460937 -0.09375,0.917968 -0.285156,1.371094 -0.1875,0.453124 -0.453125,0.835937 -0.792969,1.148437 -0.382813,0.347656 -0.816406,0.613281 -1.300781,0.796875 -0.480469,0.1875 -1.082032,0.28125 -1.808594,0.28125"
         style="fill:#211e1e;fill-opacity:1;fill-rule:nonzero;stroke:none"
         inkscape:connector-curvature="0" />
      <path
         id="path4567"
         d="M 106.19141,66.8125 101.42188,79 H 99.835938 L 101.42188,75.300781 98.191406,66.8125 h 1.605469 l 2.433595,6.617188 2.41797,-6.617188 h 1.54297"
         style="fill:#211e1e;fill-opacity:1;fill-rule:nonzero;stroke:none"
         inkscape:connector-curvature="0" />
      <path
         id="path4569"
         d="m 111.94922,75.90625 c -0.59375,0 -1.14844,-0.08203 -1.66797,-0.238281 -0.51953,-0.160157 -0.94531,-0.332031 -1.28516,-0.511719 v -1.6875 h 0.0781 c 0.12891,0.101562 0.27734,0.21875 0.44922,0.34375 0.17187,0.125 0.40234,0.253906 0.6914,0.386719 0.25391,0.121093 0.53125,0.226562 0.83985,0.320312 0.30469,0.08984 0.62109,0.136719 0.94922,0.136719 0.23828,0 0.49609,-0.02734 0.76562,-0.08203 0.26953,-0.05859 0.47266,-0.128907 0.60547,-0.214844 0.1875,-0.121094 0.32031,-0.253906 0.40234,-0.390625 0.082,-0.140625 0.125,-0.351562 0.125,-0.625 0,-0.359375 -0.0977,-0.628906 -0.29296,-0.8125 -0.19532,-0.179688 -0.53907,-0.332031 -1.03125,-0.457031 -0.19141,-0.04687 -0.44141,-0.09766 -0.75,-0.160157 -0.3086,-0.0625 -0.59766,-0.132812 -0.85547,-0.203124 -0.6836,-0.195313 -1.17578,-0.5 -1.48438,-0.910157 -0.30859,-0.414062 -0.46094,-0.910156 -0.46094,-1.492187 0,-0.800782 0.30079,-1.457032 0.91016,-1.960938 0.60938,-0.503906 1.41406,-0.753906 2.42188,-0.753906 0.49609,0 0.99609,0.0625 1.49609,0.183594 0.5,0.121094 0.92187,0.277344 1.26562,0.460937 v 1.605469 h -0.082 c -0.38281,-0.308594 -0.8125,-0.554688 -1.28515,-0.730469 -0.47266,-0.179687 -0.94922,-0.269531 -1.42969,-0.269531 -0.49609,0 -0.91406,0.105469 -1.25391,0.3125 -0.34375,0.207031 -0.51172,0.523438 -0.51172,0.945312 0,0.371094 0.0977,0.648438 0.30079,0.835938 0.20312,0.179688 0.52734,0.332031 0.97656,0.449219 0.22265,0.05859 0.46875,0.113281 0.74219,0.171875 0.27734,0.05469 0.5664,0.121094 0.86718,0.195312 0.66016,0.164063 1.15625,0.4375 1.48828,0.820313 0.33204,0.378906 0.5,0.898437 0.5,1.558593 0,0.378907 -0.0781,0.742188 -0.23046,1.082032 -0.14844,0.34375 -0.3711,0.636718 -0.66407,0.878906 -0.3164,0.265625 -0.67968,0.46875 -1.07812,0.605469 -0.40235,0.136719 -0.90625,0.207031 -1.51172,0.207031"
         style="fill:#211e1e;fill-opacity:1;fill-rule:nonzero;stroke:none"
         inkscape:connector-curvature="0" />
      <path
         id="path4571"
         d="m 121.73438,75.90625 c -0.81641,0 -1.45313,-0.230469 -1.91016,-0.699219 C 119.36719,74.742188 119.14063,74.007812 119.14063,73 v -4.9375 h -1 v -1.25 h 1 V 64.25 h 1.5 v 2.5625 h 2.75 v 1.25 h -2.75 v 4.238281 c 0,0.453125 0.008,0.804688 0.0234,1.046875 0.0156,0.246094 0.0781,0.472656 0.1836,0.6875 0.0898,0.183594 0.23437,0.328125 0.4375,0.417969 0.19922,0.09375 0.47265,0.140625 0.8164,0.140625 0.2461,0 0.48047,-0.03516 0.70703,-0.105469 0.23047,-0.07031 0.39454,-0.128906 0.4961,-0.175781 h 0.0859 v 1.339844 c -0.28125,0.07813 -0.56641,0.140625 -0.85547,0.1875 -0.28907,0.04297 -0.55469,0.06641 -0.80078,0.06641"
         style="fill:#211e1e;fill-opacity:1;fill-rule:nonzero;stroke:none"
         inkscape:connector-curvature="0" />
      <path
         id="path4573"
         d="m 130.55078,75.90625 c -1.41406,0 -2.51172,-0.398438 -3.29297,-1.199219 -0.78125,-0.796875 -1.17187,-1.933593 -1.17187,-3.402343 0,-1.449219 0.3789,-2.597657 1.13281,-3.457032 0.75781,-0.855468 1.74609,-1.285156 2.96875,-1.285156 0.54687,0 1.03516,0.07813 1.45703,0.238281 0.42578,0.160157 0.79297,0.410157 1.11328,0.746094 0.31641,0.339844 0.5586,0.753906 0.73047,1.246094 0.16797,0.492187 0.25391,1.09375 0.25391,1.800781 v 0.8125 h -6.15625 c 0,1.03125 0.25781,1.824219 0.78125,2.367188 0.51953,0.546874 1.23828,0.820312 2.15625,0.820312 0.33203,0 0.65234,-0.03906 0.96875,-0.109375 0.3164,-0.07422 0.60156,-0.167969 0.85937,-0.285156 0.26953,-0.121094 0.4961,-0.238281 0.6836,-0.347657 0.1875,-0.113281 0.33984,-0.21875 0.46093,-0.320312 h 0.0898 v 1.625 c -0.17578,0.07031 -0.39453,0.15625 -0.65235,0.261719 -0.26172,0.101562 -0.49218,0.183593 -0.69922,0.242187 -0.29296,0.07813 -0.55468,0.140625 -0.79296,0.183594 -0.23438,0.04297 -0.53125,0.0625 -0.89063,0.0625 z M 132.27344,70.25 c -0.0117,-0.402344 -0.0586,-0.75 -0.14453,-1.042969 -0.082,-0.292969 -0.20704,-0.539062 -0.36329,-0.742187 -0.17578,-0.222656 -0.39843,-0.390625 -0.67187,-0.507813 -0.27344,-0.117187 -0.60938,-0.175781 -1.01172,-0.175781 -0.39453,0 -0.73437,0.05859 -1.01172,0.179688 -0.27734,0.121093 -0.52734,0.292968 -0.75781,0.519531 -0.21875,0.234375 -0.39062,0.492187 -0.50391,0.777343 -0.11718,0.285157 -0.1914,0.617188 -0.22265,0.992188 h 4.6875"
         style="fill:#211e1e;fill-opacity:1;fill-rule:nonzero;stroke:none"
         inkscape:connector-curvature="0" />
      <path
         id="path4575"
         d="m 147.60156,75.71875 v -5.144531 c 0,-0.410157 -0.0156,-0.789063 -0.0508,-1.136719 -0.0312,-0.347656 -0.0977,-0.621094 -0.19922,-0.816406 -0.10547,-0.210938 -0.25781,-0.367188 -0.45703,-0.46875 C 146.69922,68.050781 146.43359,68 146.09766,68 c -0.3086,0 -0.64063,0.09375 -0.99219,0.28125 -0.35547,0.183594 -0.72266,0.453125 -1.09766,0.804688 0.004,0.08984 0.0117,0.199218 0.0156,0.324218 0.008,0.125 0.0117,0.273438 0.0117,0.445313 v 5.863281 h -1.5 v -5.144531 c 0,-0.410157 -0.0156,-0.789063 -0.0469,-1.136719 -0.0312,-0.347656 -0.0977,-0.621094 -0.19922,-0.816406 -0.10547,-0.210938 -0.25781,-0.367188 -0.45312,-0.46875 C 141.63672,68.050781 141.37109,68 141.03516,68 c -0.32422,0 -0.66407,0.09766 -1.01954,0.296875 -0.35937,0.203125 -0.70312,0.457031 -1.03906,0.765625 v 6.65625 h -1.5 V 66.8125 h 1.5 v 0.984375 c 0.39063,-0.390625 0.78125,-0.695313 1.16797,-0.910156 0.38672,-0.21875 0.80859,-0.324219 1.27344,-0.324219 0.52734,0 0.99219,0.117188 1.40234,0.359375 0.40625,0.238281 0.71485,0.628906 0.92969,1.175781 0.45312,-0.503906 0.89453,-0.882812 1.32422,-1.144531 0.43359,-0.261719 0.90234,-0.390625 1.40625,-0.390625 0.38281,0 0.73047,0.05859 1.04687,0.179688 0.3125,0.117187 0.58594,0.3125 0.82422,0.578124 0.23828,0.273438 0.42188,0.609376 0.55078,1.011719 0.13282,0.40625 0.19922,0.914063 0.19922,1.523438 v 5.863281 h -1.5"
         style="fill:#211e1e;fill-opacity:1;fill-rule:nonzero;stroke:none"
         inkscape:connector-curvature="0" />
      <path
         id="path4577"
         d="m 155.8125,75.90625 c -0.59375,0 -1.15234,-0.08203 -1.66797,-0.238281 -0.51953,-0.160157 -0.94922,-0.332031 -1.28906,-0.511719 v -1.6875 h 0.082 c 0.125,0.101562 0.27734,0.21875 0.44922,0.34375 0.17187,0.125 0.40234,0.253906 0.6875,0.386719 0.2539,0.121093 0.53515,0.226562 0.83984,0.320312 0.3086,0.08984 0.625,0.136719 0.95313,0.136719 0.23828,0 0.49218,-0.02734 0.76562,-0.08203 0.26953,-0.05859 0.47266,-0.128907 0.60547,-0.214844 0.18359,-0.121094 0.32031,-0.253906 0.40234,-0.390625 0.082,-0.140625 0.1211,-0.351562 0.1211,-0.625 0,-0.359375 -0.0977,-0.628906 -0.28906,-0.8125 -0.19532,-0.179688 -0.53907,-0.332031 -1.03516,-0.457031 -0.19141,-0.04687 -0.44141,-0.09766 -0.75,-0.160157 -0.30859,-0.0625 -0.59375,-0.132812 -0.85156,-0.203124 -0.6836,-0.195313 -1.17578,-0.5 -1.48438,-0.910157 -0.30859,-0.414062 -0.46484,-0.910156 -0.46484,-1.492187 0,-0.800782 0.30469,-1.457032 0.91406,-1.960938 0.60547,-0.503906 1.41406,-0.753906 2.42188,-0.753906 0.49609,0 0.99609,0.0625 1.49609,0.183594 0.5,0.121094 0.92187,0.277344 1.26172,0.460937 v 1.605469 h -0.0781 c -0.38281,-0.308594 -0.8125,-0.554688 -1.28515,-0.730469 -0.47266,-0.179687 -0.94922,-0.269531 -1.42969,-0.269531 -0.49609,0 -0.91406,0.105469 -1.25391,0.3125 -0.34375,0.207031 -0.51562,0.523438 -0.51562,0.945312 0,0.371094 0.10156,0.648438 0.30469,0.835938 0.20312,0.179688 0.52734,0.332031 0.97265,0.449219 0.22266,0.05859 0.47266,0.113281 0.7461,0.171875 0.27343,0.05469 0.5625,0.121094 0.86718,0.195312 0.66016,0.164063 1.15625,0.4375 1.48828,0.820313 0.33204,0.378906 0.4961,0.898437 0.4961,1.558593 0,0.378907 -0.0742,0.742188 -0.22656,1.082032 -0.15235,0.34375 -0.3711,0.636718 -0.66407,0.878906 -0.32031,0.265625 -0.67968,0.46875 -1.08203,0.605469 -0.39844,0.136719 -0.90234,0.207031 -1.50781,0.207031"
         style="fill:#211e1e;fill-opacity:1;fill-rule:nonzero;stroke:none"
         inkscape:connector-curvature="0" />
      <path
         id="path4579"
         d="m 177.21484,75.71875 h -6.90625 v -11.875 h 1.5586 V 74.3125 h 5.34765 v 1.40625"
         style="fill:#211e1e;fill-opacity:1;fill-rule:nonzero;stroke:none"
         inkscape:connector-curvature="0" />
      <path
         id="path4581"
         d="m 185.47656,74.773438 c -0.12109,0.08984 -0.28515,0.214843 -0.48828,0.378906 -0.20312,0.160156 -0.39844,0.289062 -0.58984,0.386718 -0.26172,0.136719 -0.51953,0.242188 -0.76172,0.316407 -0.2461,0.07422 -0.59375,0.113281 -1.03516,0.113281 -0.36719,0 -0.71094,-0.07031 -1.03906,-0.207031 -0.32813,-0.140625 -0.61719,-0.335938 -0.86328,-0.585938 -0.23828,-0.246093 -0.42969,-0.546875 -0.57031,-0.90625 -0.14454,-0.359375 -0.21485,-0.738281 -0.21485,-1.140625 0,-0.617187 0.12891,-1.144531 0.39063,-1.578125 0.25781,-0.433593 0.66797,-0.78125 1.22656,-1.035156 0.49609,-0.230469 1.08203,-0.390625 1.75781,-0.476563 0.67578,-0.08984 1.40625,-0.152343 2.1875,-0.195312 v -0.289062 c 0,-0.347657 -0.0508,-0.632813 -0.16015,-0.847657 -0.10157,-0.214843 -0.25391,-0.378906 -0.44141,-0.496093 -0.19141,-0.125 -0.42578,-0.203126 -0.69922,-0.246094 -0.27344,-0.03906 -0.55859,-0.05859 -0.84766,-0.05859 -0.34375,0 -0.75,0.05469 -1.21484,0.160156 -0.46484,0.105469 -0.92578,0.261719 -1.39062,0.464844 h -0.0898 V 67.00391 c 0.27344,-0.08203 0.67188,-0.167968 1.1836,-0.265625 0.51562,-0.09766 1.02343,-0.144531 1.52734,-0.144531 0.60937,0 1.125,0.04687 1.54297,0.144531 0.41797,0.09375 0.79297,0.269531 1.1289,0.519531 0.32422,0.242188 0.5625,0.558594 0.72266,0.949219 0.16016,0.386719 0.23828,0.859375 0.23828,1.417969 v 6.09375 h -1.5 z m 0,-1.242188 V 71.0625 c -0.35547,0.03125 -0.80078,0.07422 -1.34375,0.132812 -0.54297,0.05469 -0.98047,0.132813 -1.3164,0.234376 -0.39454,0.121093 -0.72266,0.308593 -0.98047,0.5625 -0.26172,0.25 -0.39063,0.601562 -0.39063,1.054687 0,0.511719 0.14453,0.894531 0.42969,1.15625 0.28516,0.261719 0.70312,0.390625 1.25391,0.390625 0.46875,0 0.89453,-0.101562 1.27734,-0.308594 0.37891,-0.203125 0.73828,-0.457031 1.07031,-0.753906"
         style="fill:#211e1e;fill-opacity:1;fill-rule:nonzero;stroke:none"
         inkscape:connector-curvature="0" />
      <path
         id="path4583"
         d="m 198.78125,71.117188 c 0,1.457031 -0.35547,2.632812 -1.0625,3.519531 -0.70313,0.886719 -1.58984,1.332031 -2.65234,1.332031 -0.48438,0 -0.89454,-0.0625 -1.23829,-0.179688 -0.34375,-0.121093 -0.68359,-0.277343 -1.01562,-0.480468 l -0.0977,0.410156 h -1.4023 V 63.3125 h 1.5 v 4.429688 c 0.375,-0.339844 0.78516,-0.621094 1.22656,-0.84375 0.44141,-0.226563 0.94141,-0.335938 1.4961,-0.335938 1.0039,0 1.79687,0.402344 2.375,1.210938 0.57812,0.804687 0.87109,1.917968 0.87109,3.34375 z m -1.53125,0.125 c 0,-1.0625 -0.16406,-1.867188 -0.48828,-2.417969 C 196.4375,68.277344 195.91406,68 195.19531,68 c -0.41406,0 -0.82812,0.09375 -1.24609,0.28125 -0.41797,0.191406 -0.79688,0.429688 -1.13672,0.71875 v 5.113281 c 0.375,0.1875 0.71094,0.316407 1.00391,0.394531 0.29296,0.07813 0.61718,0.117188 0.96875,0.117188 0.76953,0 1.37109,-0.269531 1.80859,-0.8125 0.4375,-0.542969 0.65625,-1.398438 0.65625,-2.570312"
         style="fill:#211e1e;fill-opacity:1;fill-rule:nonzero;stroke:none"
         inkscape:connector-curvature="0" />
      <path
         id="path4585"
         d="m 209.82031,71.269531 c 0,1.5 -0.35937,2.65625 -1.07812,3.472657 -0.71875,0.820312 -1.67578,1.226562 -2.86719,1.226562 -1.23047,0 -2.19922,-0.421875 -2.90234,-1.265625 -0.70704,-0.839844 -1.0586,-1.988281 -1.0586,-3.433594 0,-1.488281 0.35938,-2.648437 1.08985,-3.472656 0.72656,-0.824219 1.68359,-1.234375 2.87109,-1.234375 1.19141,0 2.14844,0.410156 2.86719,1.230469 0.71875,0.824219 1.07812,1.980469 1.07812,3.476562 z m -1.53125,0 c 0,-1.148437 -0.21094,-2 -0.6289,-2.558593 C 207.24219,68.15625 206.64453,67.875 205.875,67.875 c -0.77734,0 -1.37891,0.28125 -1.80078,0.835938 -0.42188,0.558593 -0.62891,1.410156 -0.62891,2.558593 0,1.109375 0.20703,1.953125 0.62891,2.527344 0.42187,0.570313 1.02344,0.859375 1.80078,0.859375 0.76562,0 1.35937,-0.28125 1.78125,-0.84375 0.42187,-0.5625 0.63281,-1.410156 0.63281,-2.542969"
         style="fill:#211e1e;fill-opacity:1;fill-rule:nonzero;stroke:none"
         inkscape:connector-curvature="0" />
      <path
         id="path4587"
         d="m 218.29297,68.4375 h -0.0781 c -0.10937,-0.02734 -0.23047,-0.04297 -0.35156,-0.05078 -0.125,-0.0078 -0.27344,-0.01172 -0.44531,-0.01172 -0.40235,0 -0.79688,0.08594 -1.19141,0.261719 -0.39453,0.175781 -0.76953,0.433593 -1.12109,0.78125 v 6.300781 h -1.5 V 66.8125 h 1.5 v 1.324219 c 0.53906,-0.484375 1.01172,-0.828125 1.41406,-1.027344 0.40625,-0.199219 0.79297,-0.296875 1.17188,-0.296875 0.15625,0 0.26953,0.0039 0.34375,0.01172 0.0781,0.0078 0.16406,0.01953 0.25781,0.03516 v 1.57812"
         style="fill:#211e1e;fill-opacity:1;fill-rule:nonzero;stroke:none"
         inkscape:connector-curvature="0" />
      <path
         id="path4589"
         d="m 226.35156,74.773438 c -0.12109,0.08984 -0.28515,0.214843 -0.48828,0.378906 -0.20312,0.160156 -0.40234,0.289062 -0.58984,0.386718 -0.26563,0.136719 -0.51953,0.242188 -0.76563,0.316407 -0.24609,0.07422 -0.58984,0.113281 -1.03515,0.113281 -0.36329,0 -0.71094,-0.07031 -1.03516,-0.207031 -0.33203,-0.140625 -0.61719,-0.335938 -0.86719,-0.585938 -0.23437,-0.246093 -0.42578,-0.546875 -0.57031,-0.90625 -0.14063,-0.359375 -0.21484,-0.738281 -0.21484,-1.140625 0,-0.617187 0.13281,-1.144531 0.39062,-1.578125 0.25781,-0.433593 0.66797,-0.78125 1.22656,-1.035156 0.4961,-0.230469 1.08203,-0.390625 1.76172,-0.476563 0.67578,-0.08984 1.40235,-0.152343 2.1875,-0.195312 v -0.289062 c 0,-0.347657 -0.0547,-0.632813 -0.16015,-0.847657 -0.10547,-0.214843 -0.25391,-0.378906 -0.44532,-0.496093 -0.1875,-0.125 -0.42187,-0.203126 -0.69531,-0.246094 -0.27734,-0.03906 -0.55859,-0.05859 -0.85156,-0.05859 -0.34375,0 -0.7461,0.05469 -1.21094,0.160156 -0.46484,0.105469 -0.92969,0.261719 -1.39453,0.464844 h -0.0859 V 67.00391 c 0.27344,-0.08203 0.66797,-0.167968 1.1836,-0.265625 0.51171,-0.09766 1.02343,-0.144531 1.52734,-0.144531 0.60547,0 1.12109,0.04687 1.53906,0.144531 0.42188,0.09375 0.79688,0.269531 1.12891,0.519531 0.32422,0.242188 0.5664,0.558594 0.72265,0.949219 0.16016,0.386719 0.24219,0.859375 0.24219,1.417969 v 6.09375 h -1.5 z m 0,-1.242188 V 71.0625 c -0.35547,0.03125 -0.80469,0.07422 -1.34765,0.132812 -0.54297,0.05469 -0.98047,0.132813 -1.3125,0.234376 -0.39454,0.121093 -0.72266,0.308593 -0.98438,0.5625 -0.25781,0.25 -0.39062,0.601562 -0.39062,1.054687 0,0.511719 0.14453,0.894531 0.42968,1.15625 0.28516,0.261719 0.70313,0.390625 1.25391,0.390625 0.47266,0 0.89844,-0.101562 1.27734,-0.308594 0.38282,-0.203125 0.73828,-0.457031 1.07422,-0.753906"
         style="fill:#211e1e;fill-opacity:1;fill-rule:nonzero;stroke:none"
         inkscape:connector-curvature="0" />
      <path
         id="path4591"
         d="m 234.87109,75.90625 c -0.8164,0 -1.45312,-0.230469 -1.90625,-0.699219 -0.45703,-0.464843 -0.6875,-1.199219 -0.6875,-2.207031 v -4.9375 h -1 v -1.25 h 1 V 64.25 h 1.5 v 2.5625 h 2.75 v 1.25 h -2.75 v 4.238281 c 0,0.453125 0.008,0.804688 0.0273,1.046875 0.0117,0.246094 0.0742,0.472656 0.17968,0.6875 0.0898,0.183594 0.23829,0.328125 0.4375,0.417969 0.19922,0.09375 0.47266,0.140625 0.82032,0.140625 0.24218,0 0.48047,-0.03516 0.70703,-0.105469 0.22656,-0.07031 0.39062,-0.128906 0.49219,-0.175781 h 0.0859 v 1.339844 c -0.28125,0.07813 -0.5664,0.140625 -0.85547,0.1875 -0.28906,0.04297 -0.55468,0.06641 -0.80078,0.06641"
         style="fill:#211e1e;fill-opacity:1;fill-rule:nonzero;stroke:none"
         inkscape:connector-curvature="0" />
      <path
         id="path4593"
         d="m 247.12891,71.269531 c 0,1.5 -0.35938,2.65625 -1.07813,3.472657 -0.71484,0.820312 -1.67187,1.226562 -2.86719,1.226562 -1.23047,0 -2.19922,-0.421875 -2.90234,-1.265625 -0.70703,-0.839844 -1.05859,-1.988281 -1.05859,-3.433594 0,-1.488281 0.36328,-2.648437 1.08984,-3.472656 0.72656,-0.824219 1.68359,-1.234375 2.87109,-1.234375 1.19532,0 2.15235,0.410156 2.86719,1.230469 0.71875,0.824219 1.07813,1.980469 1.07813,3.476562 z m -1.53125,0 c 0,-1.148437 -0.20704,-2 -0.625,-2.558593 -0.41797,-0.554688 -1.01563,-0.835938 -1.78907,-0.835938 -0.77734,0 -1.375,0.28125 -1.79687,0.835938 -0.42188,0.558593 -0.63281,1.410156 -0.63281,2.558593 0,1.109375 0.21093,1.953125 0.63281,2.527344 0.42187,0.570313 1.01953,0.859375 1.79687,0.859375 0.76953,0 1.36328,-0.28125 1.78516,-0.84375 0.41797,-0.5625 0.62891,-1.410156 0.62891,-2.542969"
         style="fill:#211e1e;fill-opacity:1;fill-rule:nonzero;stroke:none"
         inkscape:connector-curvature="0" />
      <path
         id="path4595"
         d="m 255.60156,68.4375 h -0.0781 c -0.10938,-0.02734 -0.22657,-0.04297 -0.35157,-0.05078 -0.12109,-0.0078 -0.27343,-0.01172 -0.44531,-0.01172 -0.39844,0 -0.79687,0.08594 -1.1914,0.261719 -0.39454,0.175781 -0.76563,0.433593 -1.1211,0.78125 v 6.300781 h -1.5 V 66.8125 h 1.5 v 1.324219 c 0.54297,-0.484375 1.01563,-0.828125 1.41797,-1.027344 0.40234,-0.199219 0.79297,-0.296875 1.17188,-0.296875 0.15234,0 0.26562,0.0039 0.34375,0.01172 0.0742,0.0078 0.16015,0.01953 0.2539,0.03516 v 1.57812"
         style="fill:#211e1e;fill-opacity:1;fill-rule:nonzero;stroke:none"
         inkscape:connector-curvature="0" />
      <path
         id="path4597"
         d="M 265.97266,66.8125 261.19922,79 h -1.58594 l 1.58594,-3.699219 -3.22656,-8.488281 h 1.60156 l 2.43359,6.617188 2.41797,-6.617188 h 1.54688"
         style="fill:#211e1e;fill-opacity:1;fill-rule:nonzero;stroke:none"
         inkscape:connector-curvature="0" />
    </g>
  </g>
</svg>
