<?xml version="1.0" encoding="UTF-8" standalone="no"?>
<svg
   xmlns:dc="http://purl.org/dc/elements/1.1/"
   xmlns:cc="http://creativecommons.org/ns#"
   xmlns:rdf="http://www.w3.org/1999/02/22-rdf-syntax-ns#"
   xmlns:svg="http://www.w3.org/2000/svg"
   xmlns="http://www.w3.org/2000/svg"
   xmlns:sodipodi="http://sodipodi.sourceforge.net/DTD/sodipodi-0.dtd"
   xmlns:inkscape="http://www.inkscape.org/namespaces/inkscape"
   version="1.1"
   id="svg4500"
   viewBox="0 0 694.3049 92.136088"
   height="26.002851mm"
   width="195.94827mm"
   inkscape:version="0.91 r13725"
   sodipodi:docname="sitola-logo.svg">
  <sodipodi:namedview
     pagecolor="#ffffff"
     bordercolor="#666666"
     borderopacity="1"
     objecttolerance="10"
     gridtolerance="10"
     guidetolerance="10"
     inkscape:pageopacity="0"
     inkscape:pageshadow="2"
     inkscape:window-width="1918"
     inkscape:window-height="1058"
     id="namedview34"
     showgrid="false"
     fit-margin-top="0"
     fit-margin-left="0"
     fit-margin-right="0"
     fit-margin-bottom="0"
     inkscape:zoom="1.2685914"
     inkscape:cx="254.37349"
     inkscape:cy="56.482171"
     inkscape:window-x="0"
     inkscape:window-y="20"
     inkscape:window-maximized="1"
     inkscape:current-layer="svg4500" />
  <defs
     id="defs4502" />
  <metadata
     id="metadata4505">
    <rdf:RDF>
      <cc:Work
         rdf:about="">
        <dc:format>image/svg+xml</dc:format>
        <dc:type
           rdf:resource="http://purl.org/dc/dcmitype/StillImage" />
        <dc:title></dc:title>
      </cc:Work>
    </rdf:RDF>
  </metadata>
  <g
     id="layer1"
     transform="matrix(1.9240062,0,0,1.9240062,-257.53522,-697.84495)">
    <g
       transform="translate(76.060279,306.33612)"
       id="g3965">
      <g
         transform="matrix(0.22374586,0,0,-0.22374586,57.684453,104.69821)"
         id="g3849">
        <path
           d="m 165.345,172.136 c -2.084,-1.564 -4.854,-2.323 -7.487,-2.323 -7.28,0 -13.218,5.938 -13.218,13.218 0,3.615 1.627,7.854 4.492,10.003 l 26.921,20.19 c 2.213,1.661 5.244,2.781 8.032,2.781 7.281,0 13.219,-5.938 13.219,-13.219 0,-3.924 -1.805,-8.012 -4.914,-10.346 l -27.045,-20.304"
           style="fill:#000000;fill-opacity:1;fill-rule:evenodd;stroke:none"
           id="path3672"
           inkscape:connector-curvature="0" />
        <path
           d="m 111.641,172.114 c 2.084,-1.564 4.854,-2.323 7.487,-2.323 7.28,0 13.218,5.938 13.218,13.218 0,3.614 -1.627,7.854 -4.491,10.002 l -26.921,20.191 c -2.2145,1.661 -5.2445,2.78 -8.0332,2.78 -7.2805,0 -13.2184,-5.937 -13.2184,-13.218 0,-3.924 1.8043,-8.012 4.9137,-10.346 l 27.0449,-20.304"
           style="fill:#000000;fill-opacity:1;fill-rule:evenodd;stroke:none"
           id="path3674"
           inkscape:connector-curvature="0" />
        <path
           d="m 138.516,205.798 c 20.544,0 37.299,-16.755 37.299,-37.3 0,-20.543 -16.755,-37.299 -37.299,-37.299 -20.545,0 -37.3,16.756 -37.3,37.299 0,20.545 16.755,37.3 37.3,37.3"
           style="fill:#000000;fill-opacity:1;fill-rule:evenodd;stroke:none"
           id="path3676"
           inkscape:connector-curvature="0" />
        <path
           d="m 138.516,197.946 c 16.219,0 29.447,-13.228 29.447,-29.448 0,-16.218 -13.228,-29.446 -29.447,-29.446 -16.219,0 -29.447,13.228 -29.447,29.446 0,16.22 13.228,29.448 29.447,29.448"
           style="fill:#fbc707;fill-opacity:1;fill-rule:evenodd;stroke:none"
           id="path3678"
           inkscape:connector-curvature="0" />
        <path
           d="m 244.563,112.073 c -2.084,-1.564 -4.854,-2.323 -7.487,-2.323 -7.281,0 -13.219,5.938 -13.219,13.218 0,3.614 1.628,7.853 4.492,10.002 l 26.921,20.191 c 2.214,1.66 5.244,2.78 8.033,2.78 7.28,0 13.218,-5.937 13.218,-13.218 0,-3.925 -1.804,-8.012 -4.913,-10.346 l -27.045,-20.304"
           style="fill:#000000;fill-opacity:1;fill-rule:evenodd;stroke:none"
           id="path3680"
           inkscape:connector-curvature="0" />
        <path
           d="m 211.331,130.274 -45.498,34.123 c -5.814,4.296 -14.144,3.08 -18.481,-2.703 -4.337,-5.783 -3.232,-14.035 2.52,-18.413 l 45.606,-34.204 15.853,21.197"
           style="fill:#000000;fill-opacity:1;fill-rule:evenodd;stroke:none"
           id="path3682"
           inkscape:connector-curvature="0" />
        <path
           d="m 65.9039,130.274 45.4981,34.123 c 5.813,4.296 14.143,3.08 18.48,-2.703 4.338,-5.783 3.233,-14.035 -2.519,-18.413 L 81.7566,109.077 65.9039,130.274"
           style="fill:#000000;fill-opacity:1;fill-rule:evenodd;stroke:none"
           id="path3684"
           inkscape:connector-curvature="0" />
        <path
           d="m 32.4453,112.64 c 2.0844,-1.565 4.8535,-2.324 7.4871,-2.324 7.2805,0 13.2184,5.938 13.2184,13.219 0,3.614 -1.6274,7.854 -4.4918,10.002 l -26.9211,20.191 c -2.2137,1.66 -5.2441,2.78 -8.0324,2.78 -7.2805,0 -13.218781,-5.938 -13.218781,-13.218 0,-3.924 1.804691,-8.012 4.913671,-10.346 L 32.4453,112.64"
           style="fill:#000000;fill-opacity:1;fill-rule:evenodd;stroke:none"
           id="path3686"
           inkscape:connector-curvature="0" />
        <path
           d="m 217.864,146.386 c 20.544,0 37.299,-16.756 37.299,-37.3 0,-20.5438 -16.755,-37.2989 -37.299,-37.2989 -20.544,0 -37.3,16.7551 -37.3,37.2989 0,20.544 16.756,37.3 37.3,37.3"
           style="fill:#000000;fill-opacity:1;fill-rule:evenodd;stroke:none"
           id="path3688"
           inkscape:connector-curvature="0" />
        <path
           d="m 217.864,138.534 c 16.219,0 29.447,-13.229 29.447,-29.448 0,-16.2184 -13.228,-29.4465 -29.447,-29.4465 -16.219,0 -29.447,13.2281 -29.447,29.4465 0,16.219 13.228,29.448 29.447,29.448"
           style="fill:#fbc707;fill-opacity:1;fill-rule:evenodd;stroke:none"
           id="path3690"
           inkscape:connector-curvature="0" />
        <path
           d="m 59.3793,146.188 c 20.5441,0 37.2992,-16.756 37.2992,-37.3 0,-20.5439 -16.7551,-37.2993 -37.2992,-37.2993 -20.5441,0 -37.2996,16.7554 -37.2996,37.2993 0,20.544 16.7555,37.3 37.2996,37.3"
           style="fill:#000000;fill-opacity:1;fill-rule:evenodd;stroke:none"
           id="path3692"
           inkscape:connector-curvature="0" />
        <path
           d="m 59.3793,138.336 c 16.2187,0 29.4469,-13.229 29.4469,-29.448 0,-16.2189 -13.2282,-29.4466 -29.4469,-29.4466 -16.2191,0 -29.4473,13.2277 -29.4473,29.4466 0,16.219 13.2282,29.448 29.4473,29.448"
           style="fill:#fbc707;fill-opacity:1;fill-rule:evenodd;stroke:none"
           id="path3694"
           inkscape:connector-curvature="0" />
        <path
           d="m 255.808,63.9094 c 2.084,-1.5645 4.854,-2.3235 7.487,-2.3235 7.281,0 13.219,5.9379 13.219,13.2184 0,3.6145 -1.628,7.8539 -4.492,10.0023 l -26.921,20.1904 c -2.214,1.661 -5.244,2.781 -8.033,2.781 -7.28,0 -13.218,-5.938 -13.218,-13.2186 0,-3.9242 1.804,-8.0121 4.913,-10.3457 l 27.045,-20.3043"
           style="fill:#000000;fill-opacity:1;fill-rule:evenodd;stroke:none"
           id="path3696"
           inkscape:connector-curvature="0" />
        <path
           d="m 144.991,70.4625 45.498,34.1235 c 5.813,4.296 14.143,3.08 18.481,-2.703 4.337,-5.7834 3.232,-14.0346 -2.52,-18.4131 L 160.844,49.266 144.991,70.4625"
           style="fill:#000000;fill-opacity:1;fill-rule:evenodd;stroke:none"
           id="path3698"
           inkscape:connector-curvature="0" />
        <path
           d="M 132.244,70.7461 86.7465,104.87 c -5.8141,4.296 -14.1438,3.08 -18.4809,-2.704 -4.3375,-5.7828 -3.2328,-14.034 2.5196,-18.4125 l 45.6058,-34.2039 15.853,21.1965"
           style="fill:#000000;fill-opacity:1;fill-rule:evenodd;stroke:none"
           id="path3700"
           inkscape:connector-curvature="0" />
        <path
           d="m 21.323,63.9109 c -2.0839,-1.5644 -4.8535,-2.3234 -7.4871,-2.3234 -7.28043,0 -13.218322,5.9379 -13.218322,13.2184 0,3.6144 1.627342,7.8539 4.491802,10.0023 L 32.0305,104.999 c 2.214,1.66 5.2441,2.78 8.0328,2.78 7.2805,0 13.2183,-5.938 13.2183,-13.2181 0,-3.9246 -1.8046,-8.0121 -4.9136,-10.3461 L 21.323,63.9109"
           style="fill:#000000;fill-opacity:1;fill-rule:evenodd;stroke:none"
           id="path3702"
           inkscape:connector-curvature="0" />
        <path
           d="m 138.579,86.798 c 20.544,0 37.3,-16.7558 37.3,-37.3 0,-20.5441 -16.756,-37.2992 -37.3,-37.2992 -20.544,0 -37.3,16.7551 -37.3,37.2992 0,20.5442 16.756,37.3 37.3,37.3"
           style="fill:#000000;fill-opacity:1;fill-rule:evenodd;stroke:none"
           id="path3704"
           inkscape:connector-curvature="0" />
        <path
           d="m 138.579,78.9453 c 16.219,0 29.447,-13.2281 29.447,-29.4473 0,-16.2187 -13.228,-29.4468 -29.447,-29.4468 -16.219,0 -29.447,13.2281 -29.447,29.4468 0,16.2192 13.228,29.4473 29.447,29.4473"
           style="fill:#fbc707;fill-opacity:1;fill-rule:evenodd;stroke:none"
           id="path3706"
           inkscape:connector-curvature="0" />
        <path
           d="m 176.561,4.38477 c 2.085,-1.56446 4.854,-2.32344 7.487,-2.32344 7.281,0 13.219,5.93789 13.219,13.21837 0,3.6144 -1.628,7.8539 -4.492,10.0023 l -26.921,20.1907 c -2.214,1.6605 -5.244,2.7804 -8.033,2.7804 -7.28,0 -13.218,-5.9379 -13.218,-13.2183 0,-3.9243 1.804,-8.0121 4.913,-10.3461 L 176.561,4.38477"
           style="fill:#000000;fill-opacity:1;fill-rule:evenodd;stroke:none"
           id="path3708"
           inkscape:connector-curvature="0" />
        <path
           d="M 100.845,4.30156 C 98.7602,2.73711 95.9906,1.97813 93.3574,1.97813 c -7.2804,0 -13.2187,5.93789 -13.2187,13.21877 0,3.6144 1.6273,7.8535 4.4918,10.0023 l 26.9215,20.1903 c 2.214,1.6605 5.244,2.7808 8.032,2.7808 7.281,0 13.219,-5.9383 13.219,-13.2187 0,-3.9243 -1.805,-8.0121 -4.914,-10.3457 L 100.845,4.30156"
           style="fill:#000000;fill-opacity:1;fill-rule:evenodd;stroke:none"
           id="path3710"
           inkscape:connector-curvature="0" />
      </g>
      <rect
         style="opacity:1;fill:#000000;fill-opacity:1;stroke:none;stroke-width:3;stroke-linecap:butt;stroke-linejoin:miter;stroke-miterlimit:4;stroke-dasharray:none;stroke-dashoffset:0;stroke-opacity:0.58823529"
         id="rect3946"
         width="2.2321494"
         height="36.696434"
         x="131.875"
         y="61.963581"
         ry="0" />
      <g
         id="g3957"
         transform="translate(0,-1.0074802)">
        <text
           id="text3948"
           y="81.605606"
           x="143.18913"
           style="font-style:normal;font-variant:normal;font-weight:normal;font-stretch:normal;font-size:24px;line-height:125%;font-family:'Bitstream Vera Sans';-inkscape-font-specification:'Bitstream Vera Sans';letter-spacing:0px;word-spacing:0px;fill:#000000;fill-opacity:1;stroke:none;stroke-width:1px;stroke-linecap:butt;stroke-linejoin:miter;stroke-opacity:1"
           xml:space="preserve"
           sodipodi:linespacing="125%"><tspan
             y="81.605606"
             x="143.18913"
             id="tspan3951">SITOLA</tspan></text>
        <text
           id="text3953"
           y="96.505363"
           x="144.80412"
           style="font-style:normal;font-variant:normal;font-weight:normal;font-stretch:normal;font-size:24px;line-height:125%;font-family:'Bitstream Vera Sans';-inkscape-font-specification:'Bitstream Vera Sans';letter-spacing:-0.25px;word-spacing:0px;fill:#000000;fill-opacity:1;stroke:none;stroke-width:1px;stroke-linecap:butt;stroke-linejoin:miter;stroke-opacity:1"
           xml:space="preserve"
           sodipodi:linespacing="125%"><tspan
             style="font-style:normal;font-variant:normal;font-weight:normal;font-stretch:normal;font-size:11.25px;line-height:125%;font-family:'Bitstream Vera Sans';-inkscape-font-specification:'Bitstream Vera Sans, Normal';text-align:start;letter-spacing:-0.25px;writing-mode:lr-tb;text-anchor:start"
             y="96.505363"
             x="144.80412"
             id="tspan3955">The Laboratory of Advanced Network Technologies</tspan></text>
      </g>
    </g>
  </g>
</svg>
